<?xml version="1.0" encoding="UTF-8"?>
<svg width="263px" height="293px" viewBox="0 0 263 293" version="1.1" xmlns="http://www.w3.org/2000/svg" xmlns:xlink="http://www.w3.org/1999/xlink">
    <!-- Generator: Sketch 46.2 (44496) - http://www.bohemiancoding.com/sketch -->
    <title>bulb</title>
    <desc>Created with Sketch.</desc>
    <defs>
        <linearGradient x1="0%" y1="50%" x2="100%" y2="50%" id="linearGradient-1">
            <stop stop-color="#C3C2C2" offset="2.2660236%"></stop>
            <stop stop-color="#F1F0F0" offset="17.2034439%"></stop>
            <stop stop-color="#F0F0F0" offset="100%"></stop>
        </linearGradient>
        <radialGradient cx="50%" cy="51.5754544%" fx="50%" fy="51.5754544%" r="46.3995309%" id="radialGradient-2">
            <stop stop-color="#FFFFFF" offset="0%"></stop>
            <stop stop-color="#FBF9F9" offset="57.8842474%"></stop>
            <stop stop-color="#F2F2F2" offset="88.7755102%"></stop>
            <stop stop-color="#F0F0F0" offset="100%"></stop>
        </radialGradient>
        <linearGradient x1="89.9624606%" y1="104.76305%" x2="58.0001971%" y2="35.8459906%" id="linearGradient-3">
            <stop stop-color="#989898" offset="0%"></stop>
            <stop stop-color="#EBEBEB" offset="10.8090677%"></stop>
            <stop stop-color="#858585" offset="100%"></stop>
        </linearGradient>
    </defs>
    <g id="Para-exportar" stroke="none" stroke-width="1" fill="none" fill-rule="evenodd">
        <g id="bulb" transform="translate(-0.216783, 0.000000)">
            <path d="M194.28986,193.453217 C194.28986,179.223147 182.753497,167.68049 168.521329,167.68049 L99.643007,167.68049 C85.4129371,167.68049 73.8765734,179.223147 73.8765734,193.453217 L73.8765734,271.363007 C73.8765734,285.593077 85.4129371,297.129441 99.643007,297.129441 L168.521329,297.129441 C182.753497,297.129441 194.28986,285.593077 194.28986,271.363007 L194.28986,193.453217 Z" id="union-glass" fill="url(#linearGradient-1)" transform="translate(134.083217, 232.404965) rotate(-90.000000) translate(-134.083217, -232.404965) "></path>
            <path d="M131.985524,0.405524476 C204.440559,0.405524476 263.175524,59.1402797 263.175524,131.591329 C263.175524,204.052867 204.440559,262.787832 131.985524,262.787832 C59.5323776,262.787832 0.793216783,204.052867 0.793216783,131.591329 C0.793216783,59.1402797 59.5323776,0.405524476 131.985524,0.405524476 Z" id="glass" fill="url(#radialGradient-2)" transform="translate(131.984371, 131.596678) rotate(-90.000000) translate(-131.984371, -131.596678) "></path>
            <path d="M195.395455,235.477972 C196.247203,236.579371 196.775874,237.936713 196.775874,239.428322 C196.775874,240.926224 196.247203,242.285664 195.395455,243.380769 C196.243007,244.475874 196.76958,245.845804 196.76958,247.341608 C196.76958,248.833217 196.243007,250.190559 195.395455,251.285664 C196.247203,252.380769 196.76958,253.74021 196.76958,255.238112 C196.76958,258.819231 193.868182,261.718531 190.287063,261.726923 L190.287063,261.718531 C190.253497,261.718531 190.228322,261.71014 190.196853,261.71014 L190.196853,261.718531 L68.7199301,252.405944 L68.8940559,250.10035 L185.027622,259.001748 C184.263986,257.94021 183.80035,256.647902 183.80035,255.238112 C183.80035,253.74021 184.326923,252.380769 185.174476,251.285664 C184.326923,250.190559 183.798252,248.833217 183.798252,247.341608 C183.798252,245.845804 184.326923,244.475874 185.176573,243.380769 C184.326923,242.285664 183.798252,240.926224 183.798252,239.428322 C183.798252,237.936713 184.326923,236.579371 185.174476,235.484266 C184.326923,234.389161 183.798252,233.031818 183.798252,231.531818 C183.798252,230.033916 184.326923,228.676573 185.176573,227.579371 C184.326923,226.484266 183.798252,225.124825 183.798252,223.626923 C183.798252,222.135315 184.326923,220.777972 185.176573,219.676573 C184.326923,218.579371 183.798252,217.222028 183.798252,215.732517 C183.798252,214.232517 184.326923,212.875175 185.176573,211.777972 C184.326923,210.684965 183.798252,209.315035 183.798252,207.825524 C183.798252,206.32972 184.326923,204.968182 185.176573,203.875175 C184.326923,202.777972 183.80035,201.420629 183.80035,199.922727 C183.80035,198.548601 184.232517,197.277273 184.962587,196.232517 L68.8940559,205.133916 L68.7199301,202.828322 L188.820629,193.622727 C189.294755,193.507343 189.781469,193.433916 190.287063,193.433916 C193.868182,193.442308 196.76958,196.33951 196.76958,199.922727 C196.76958,201.420629 196.243007,202.777972 195.395455,203.875175 C196.247203,204.968182 196.76958,206.32972 196.76958,207.825524 C196.76958,209.315035 196.243007,210.684965 195.395455,211.777972 C196.243007,212.875175 196.767483,214.232517 196.767483,215.732517 C196.767483,217.222028 196.243007,218.579371 195.395455,219.676573 C196.243007,220.777972 196.767483,222.135315 196.767483,223.626923 C196.767483,225.124825 196.243007,226.484266 195.391259,227.579371 C196.243007,228.676573 196.767483,230.033916 196.767483,231.531818 C196.767483,233.023427 196.243007,234.382867 195.395455,235.477972 Z M186.882168,252.833916 C186.39965,253.509441 186.112238,254.34021 186.108042,255.238112 C186.112238,257.503846 187.931119,259.347902 190.188462,259.404545 L190.29965,259.412937 C192.598951,259.396154 194.457692,257.535315 194.466084,255.238112 C194.461888,254.34021 194.174476,253.515734 193.691958,252.833916 C192.697552,253.450699 191.53951,253.822028 190.287063,253.822028 C189.03042,253.822028 187.874476,253.450699 186.882168,252.833916 Z M186.886364,229.12972 C186.39965,229.811538 186.112238,230.633916 186.112238,231.531818 C186.112238,232.42972 186.39965,233.254196 186.882168,233.936014 C187.874476,233.317133 189.034615,232.95 190.287063,232.95 C191.53951,232.95 192.697552,233.317133 193.691958,233.936014 C194.174476,233.254196 194.461888,232.42972 194.466084,231.531818 C194.461888,230.633916 194.174476,229.811538 193.691958,229.12972 C192.697552,229.744406 191.53951,230.117832 190.287063,230.117832 C189.034615,230.117832 187.874476,229.738112 186.886364,229.12972 Z M186.882168,221.222727 C186.39965,221.906643 186.112238,222.731119 186.108042,223.626923 C186.112238,224.524825 186.39965,225.349301 186.882168,226.033217 C187.874476,225.414336 189.03042,225.043007 190.287063,225.043007 C191.53951,225.043007 192.697552,225.414336 193.691958,226.033217 C194.174476,225.357692 194.461888,224.524825 194.466084,223.626923 C194.461888,222.731119 194.174476,221.906643 193.691958,221.222727 C192.697552,221.841608 191.53951,222.210839 190.287063,222.221329 L190.287063,222.210839 C189.03042,222.210839 187.874476,221.841608 186.882168,221.222727 Z M186.886364,205.423427 C186.39965,206.105245 186.112238,206.92972 186.112238,207.825524 C186.112238,208.723427 186.39965,209.545804 186.886364,210.231818 C187.874476,209.612937 189.034615,209.241608 190.287063,209.241608 C191.53951,209.241608 192.697552,209.612937 193.691958,210.231818 C194.174476,209.545804 194.461888,208.723427 194.466084,207.825524 C194.461888,206.92972 194.174476,206.105245 193.691958,205.423427 C192.697552,206.04021 191.53951,206.409441 190.287063,206.409441 C189.034615,206.409441 187.874476,206.02972 186.886364,205.423427 Z M194.466084,199.922727 C194.457692,197.646503 192.636713,195.804545 190.373077,195.756294 L190.377273,195.812937 L189.212937,195.903147 C187.42972,196.379371 186.112238,197.994755 186.108042,199.922727 C186.112238,200.818531 186.39965,201.643007 186.882168,202.326923 C187.874476,201.708042 189.03042,201.338811 190.287063,201.338811 C191.53951,201.338811 192.697552,201.708042 193.691958,202.326923 C194.174476,201.651399 194.461888,200.818531 194.466084,199.922727 Z M186.886364,244.931119 C186.403846,245.612937 186.112238,246.435315 186.112238,247.341608 C186.112238,248.231119 186.39965,249.055594 186.886364,249.737413 C187.874476,249.120629 189.03042,248.749301 190.287063,248.749301 C191.53951,248.749301 192.697552,249.120629 193.691958,249.737413 C194.174476,249.055594 194.461888,248.231119 194.461888,247.341608 C194.461888,246.435315 194.174476,245.612937 193.687762,244.931119 C192.697552,245.545804 191.53951,245.919231 190.287063,245.919231 C189.034615,245.919231 187.876573,245.545804 186.886364,244.931119 Z M186.882168,237.032517 C186.39965,237.71014 186.112238,238.540909 186.112238,239.428322 C186.112238,240.328322 186.39965,241.159091 186.882168,241.832517 C187.874476,241.224126 189.03042,240.846503 190.287063,240.846503 C191.53951,240.846503 192.697552,241.224126 193.687762,241.832517 C194.174476,241.159091 194.461888,240.328322 194.461888,239.428322 C194.461888,238.53042 194.174476,237.71014 193.691958,237.032517 C192.697552,237.640909 191.53951,238.020629 190.287063,238.020629 L190.287063,238.012238 C189.03042,238.012238 187.874476,237.640909 186.882168,237.032517 Z M186.882168,213.326224 C186.39965,214.001748 186.112238,214.832517 186.108042,215.732517 C186.112238,216.63042 186.39965,217.452797 186.882168,218.128322 C187.874476,217.517832 189.034615,217.14021 190.287063,217.14021 C191.53951,217.14021 192.697552,217.517832 193.691958,218.128322 C194.168182,217.452797 194.461888,216.622028 194.461888,215.732517 C194.461888,214.832517 194.168182,214.001748 193.687762,213.326224 C192.693357,213.936713 191.53951,214.314336 190.287063,214.314336 L190.287063,214.305944 C189.03042,214.305944 187.874476,213.936713 186.882168,213.326224 Z M190.287063,251.056993 C189.82972,251.056993 189.401748,251.147203 188.990559,251.285664 C189.401748,251.417832 189.82972,251.51014 190.287063,251.516434 C190.74021,251.51014 191.168182,251.417832 191.579371,251.285664 C191.168182,251.147203 190.74021,251.056993 190.287063,251.056993 Z M190.287063,243.158392 C189.82972,243.158392 189.401748,243.250699 188.992657,243.380769 C189.405944,243.521329 189.833916,243.611538 190.287063,243.611538 L190.287063,243.603147 C190.74021,243.603147 191.168182,243.512937 191.575175,243.380769 C191.163986,243.250699 190.74021,243.158392 190.287063,243.158392 Z M190.287063,235.255594 C189.833916,235.255594 189.405944,235.352098 188.992657,235.484266 C189.401748,235.616434 189.82972,235.708741 190.287063,235.708741 C190.74021,235.708741 191.163986,235.616434 191.575175,235.484266 C191.168182,235.352098 190.74021,235.255594 190.287063,235.255594 Z M190.287063,227.348601 C189.82972,227.348601 189.401748,227.449301 188.990559,227.579371 C189.401748,227.711538 189.82972,227.812238 190.287063,227.812238 L190.287063,227.801748 C190.74021,227.801748 191.168182,227.711538 191.575175,227.579371 C191.168182,227.449301 190.74021,227.348601 190.287063,227.348601 Z M190.287063,219.454196 C189.833916,219.454196 189.405944,219.542308 188.996853,219.676573 C189.405944,219.806643 189.833916,219.905245 190.287063,219.905245 C190.74021,219.905245 191.168182,219.806643 191.575175,219.676573 C191.168182,219.542308 190.74021,219.454196 190.287063,219.454196 Z M190.287063,203.650699 C189.833916,203.650699 189.405944,203.743007 188.992657,203.875175 C189.405944,204.005245 189.833916,204.101748 190.287063,204.101748 L190.287063,204.095455 C190.74021,204.095455 191.168182,204.005245 191.575175,203.875175 C191.168182,203.743007 190.74021,203.650699 190.287063,203.650699 Z M190.287063,211.549301 C189.833916,211.557692 189.405944,211.637413 188.996853,211.777972 C189.405944,211.912238 189.833916,212.00035 190.287063,212.00035 C190.74021,212.00035 191.163986,211.912238 191.570979,211.777972 C191.163986,211.637413 190.74021,211.557692 190.287063,211.549301 Z" id="filament" fill="url(#linearGradient-3)" transform="translate(132.747902, 227.580420) rotate(-90.000000) translate(-132.747902, -227.580420) "></path>
            <path d="M78.1651049,109.813846 L98.3028671,102.485874 C91.9755944,88.9061538 83.1790909,77.1327273 72.6644056,67.4825874 L61.6672028,86.5271329 C68.2399301,93.2383217 73.8497203,101.036224 78.1651049,109.813846 M48.0203497,75.1145455 L58.7238462,56.5713986 C44.6406294,47.2693007 28.5499301,41.2252448 11.6995804,38.9741958 L15.6352448,61.2811888 C27.2366434,63.7357343 38.2462238,68.4539161 48.0203497,75.1145455" id="glow" fill="#FFFFFF" transform="translate(55.001224, 74.394021) rotate(-90.000000) translate(-55.001224, -74.394021) "></path>
        </g>
    </g>
</svg>