<?xml version="1.0" encoding="UTF-8"?>
<svg width="411px" height="411px" viewBox="0 0 411 411" version="1.1" xmlns="http://www.w3.org/2000/svg" xmlns:xlink="http://www.w3.org/1999/xlink">
    <!-- Generator: Sketch 46.2 (44496) - http://www.bohemiancoding.com/sketch -->
    <title>Group</title>
    <desc>Created with Sketch.</desc>
    <defs>
        <radialGradient cx="50%" cy="50%" fx="50%" fy="50%" r="46.2282765%" id="radialGradient-1">
            <stop stop-color="#FEE01F" offset="0%"></stop>
            <stop stop-color="#FEE01F" stop-opacity="0" offset="100%"></stop>
        </radialGradient>
        <linearGradient x1="0%" y1="50%" x2="100%" y2="50%" id="linearGradient-2">
            <stop stop-color="#C3C2C2" offset="2.2660236%"></stop>
            <stop stop-color="#F1F0F0" offset="17.2034439%"></stop>
            <stop stop-color="#F0F0F0" offset="100%"></stop>
        </linearGradient>
        <radialGradient cx="50%" cy="51.5754544%" fx="50%" fy="51.5754544%" r="46.3995309%" id="radialGradient-3">
            <stop stop-color="#FFFFFF" offset="0%"></stop>
            <stop stop-color="#FBF9F9" offset="57.8842474%"></stop>
            <stop stop-color="#F2F2F2" offset="88.7755102%"></stop>
            <stop stop-color="#F0F0F0" offset="100%"></stop>
        </radialGradient>
        <linearGradient x1="2.2660236%" y1="50%" x2="100%" y2="50%" id="linearGradient-4">
            <stop stop-color="#D4BB1E" offset="0%"></stop>
            <stop stop-color="#FEE01F" offset="18.1540976%"></stop>
            <stop stop-color="#FEE01F" offset="100%"></stop>
        </linearGradient>
        <radialGradient cx="50%" cy="50%" fx="50%" fy="50%" r="46.3995309%" gradientTransform="translate(0.500000,0.500000),scale(1.000000,0.996255),rotate(90.000000),translate(-0.500000,-0.500000)" id="radialGradient-5">
            <stop stop-color="#FFFFFF" offset="0%"></stop>
            <stop stop-color="#FDF5BE" offset="76.5326052%"></stop>
            <stop stop-color="#FEE01F" offset="100%"></stop>
        </radialGradient>
        <linearGradient x1="89.9624606%" y1="104.76305%" x2="58.0001971%" y2="35.8459906%" id="linearGradient-6">
            <stop stop-color="#989898" offset="0%"></stop>
            <stop stop-color="#EBEBEB" offset="10.8090677%"></stop>
            <stop stop-color="#858585" offset="100%"></stop>
        </linearGradient>
    </defs>
    <g id="Para-exportar" stroke="none" stroke-width="1" fill="none" fill-rule="evenodd">
        <g id="Group" transform="translate(-17.000000, -17.000000)">
            <path d="M222.495391,0 C345.379855,0 445,99.6189029 445,222.497636 C445,345.381097 345.379855,445 222.495391,445 C99.6154171,445 0,345.381097 0,222.497636 C0,99.6189029 99.6154171,0 222.495391,0 Z" id="luz" fill="url(#radialGradient-1)"></path>
            <g id="bulb" transform="translate(89.783217, 90.000000)">
                <path d="M195.616071,194.773717 C195.616071,180.446513 184.000961,168.825066 169.671645,168.825066 L100.323164,168.825066 C85.9959605,168.825066 74.3808504,180.446513 74.3808504,194.773717 L74.3808504,273.215314 C74.3808504,287.542518 85.9959605,299.157628 100.323164,299.157628 L169.671645,299.157628 C184.000961,299.157628 195.616071,287.542518 195.616071,273.215314 L195.616071,194.773717 Z" id="union-glass" fill="url(#linearGradient-2)" transform="translate(134.998461, 233.991347) rotate(-90.000000) translate(-134.998461, -233.991347) "></path>
                <path d="M132.88645,0.408292561 C205.836058,0.408292561 264.971944,59.5439676 264.971944,132.489563 C264.971944,205.445719 205.836058,264.581606 132.88645,264.581606 C59.938742,264.581606 0.798631232,205.445719 0.798631232,132.489563 C0.798631232,59.5439676 59.938742,0.408292561 132.88645,0.408292561 Z" id="glass" fill="url(#radialGradient-3)" transform="translate(132.885288, 132.494949) rotate(-90.000000) translate(-132.885288, -132.494949) "></path>
                <g id="on" transform="translate(2.000000, 0.000000)">
                    <path d="M193.07977,195.005414 C193.07977,180.727899 181.495822,169.146758 167.204951,169.146758 L98.0425275,169.146758 C83.753763,169.146758 72.1698155,180.727899 72.1698155,195.005414 L72.1698155,273.174962 C72.1698155,287.452477 83.753763,299.027304 98.0425275,299.027304 L167.204951,299.027304 C181.495822,299.027304 193.07977,287.452477 193.07977,273.174962 L193.07977,195.005414 Z" id="cristal-union" fill="url(#linearGradient-4)" transform="translate(132.624792, 234.087031) rotate(-90.000000) translate(-132.624792, -234.087031) "></path>
                    <path d="M131.626697,0.503412969 C204.474194,0.503412969 263.527305,59.7783034 263.527305,132.895625 C263.527305,206.023533 204.474194,265.298635 131.626697,265.298635 C58.7810979,265.298635 -0.276231403,206.023533 -0.276231403,132.895625 C-0.276231403,59.7783034 58.7810979,0.503412969 131.626697,0.503412969 Z" id="cristal-esfera" fill="url(#radialGradient-5)" transform="translate(131.625537, 132.901024) rotate(-90.000000) translate(-131.625537, -132.901024) "></path>
                </g>
                <path d="M196.729212,237.08533 C197.586774,238.194247 198.119054,239.560855 198.119054,241.062645 C198.119054,242.570771 197.586774,243.939491 196.729212,245.042071 C197.58255,246.144651 198.112717,247.523933 198.112717,249.029947 C198.112717,250.531737 197.58255,251.898345 196.729212,253.000925 C197.586774,254.103505 198.112717,255.472225 198.112717,256.980352 C198.112717,260.585915 195.191514,263.505006 191.585951,263.513455 L191.585951,263.505006 C191.552155,263.505006 191.526809,263.496557 191.495125,263.496557 L191.495125,263.505006 L69.1890081,254.128852 L69.3643225,251.807519 L186.29061,260.769678 C185.521761,259.700894 185.05496,258.399765 185.05496,256.980352 C185.05496,255.472225 185.585127,254.103505 186.438465,253.000925 C185.585127,251.898345 185.052847,250.531737 185.052847,249.029947 C185.052847,247.523933 185.585127,246.144651 186.440577,245.042071 C185.585127,243.939491 185.052847,242.570771 185.052847,241.062645 C185.052847,239.560855 185.585127,238.194247 186.438465,237.091667 C185.585127,235.989087 185.052847,234.622479 185.052847,233.11224 C185.052847,231.604113 185.585127,230.237506 186.440577,229.132813 C185.585127,228.030233 185.052847,226.661513 185.052847,225.153387 C185.052847,223.651597 185.585127,222.284989 186.440577,221.176072 C185.585127,220.07138 185.052847,218.704772 185.052847,217.205094 C185.052847,215.694855 185.585127,214.328248 186.440577,213.223555 C185.585127,212.123088 185.052847,210.743807 185.052847,209.244129 C185.052847,207.738114 185.585127,206.367282 186.440577,205.266814 C185.585127,204.162122 185.05496,202.795514 185.05496,201.287388 C185.05496,199.903882 185.490077,198.623875 186.225131,197.571989 L69.3643225,206.534148 L69.1890081,204.212815 L190.109507,194.944384 C190.58687,194.828212 191.076905,194.754284 191.585951,194.754284 C195.191514,194.762733 198.112717,197.679712 198.112717,201.287388 C198.112717,202.795514 197.58255,204.162122 196.729212,205.266814 C197.586774,206.367282 198.112717,207.738114 198.112717,209.244129 C198.112717,210.743807 197.58255,212.123088 196.729212,213.223555 C197.58255,214.328248 198.110605,215.694855 198.110605,217.205094 C198.110605,218.704772 197.58255,220.07138 196.729212,221.176072 C197.58255,222.284989 198.110605,223.651597 198.110605,225.153387 C198.110605,226.661513 197.58255,228.030233 196.724987,229.132813 C197.58255,230.237506 198.110605,231.604113 198.110605,233.11224 C198.110605,234.61403 197.58255,235.98275 196.729212,237.08533 Z M188.157814,254.559745 C187.672003,255.23988 187.382628,256.07632 187.378404,256.980352 C187.382628,259.261552 189.213925,261.118195 191.486676,261.175225 L191.598624,261.183674 C193.91362,261.166776 195.785049,259.293235 195.793497,256.980352 C195.789273,256.07632 195.499899,255.246217 195.014087,254.559745 C194.012894,255.180738 192.846947,255.554602 191.585951,255.554602 C190.32073,255.554602 189.156895,255.180738 188.157814,254.559745 Z M188.162038,230.693746 C187.672003,231.380218 187.382628,232.208209 187.382628,233.11224 C187.382628,234.016271 187.672003,234.846375 188.157814,235.532847 C189.156895,234.909741 190.324954,234.540102 191.585951,234.540102 C192.846947,234.540102 194.012894,234.909741 195.014087,235.532847 C195.499899,234.846375 195.789273,234.016271 195.793497,233.11224 C195.789273,232.208209 195.499899,231.380218 195.014087,230.693746 C194.012894,231.312627 192.846947,231.688602 191.585951,231.688602 C190.324954,231.688602 189.156895,231.30629 188.162038,230.693746 Z M188.157814,222.73278 C187.672003,223.421364 187.382628,224.251468 187.378404,225.153387 C187.382628,226.057418 187.672003,226.887521 188.157814,227.576106 C189.156895,226.953 190.32073,226.579137 191.585951,226.579137 C192.846947,226.579137 194.012894,226.953 195.014087,227.576106 C195.499899,226.89597 195.789273,226.057418 195.793497,225.153387 C195.789273,224.251468 195.499899,223.421364 195.014087,222.73278 C194.012894,223.355886 192.846947,223.727637 191.585951,223.738198 L191.585951,223.727637 C190.32073,223.727637 189.156895,223.355886 188.157814,222.73278 Z M188.162038,206.825634 C187.672003,207.512106 187.382628,208.34221 187.382628,209.244129 C187.382628,210.14816 187.672003,210.976151 188.162038,211.666848 C189.156895,211.043742 190.324954,210.669879 191.585951,210.669879 C192.846947,210.669879 194.012894,211.043742 195.014087,211.666848 C195.499899,210.976151 195.789273,210.14816 195.793497,209.244129 C195.789273,208.34221 195.499899,207.512106 195.014087,206.825634 C194.012894,207.446628 192.846947,207.818379 191.585951,207.818379 C190.324954,207.818379 189.156895,207.436066 188.162038,206.825634 Z M195.793497,201.287388 C195.785049,198.995626 193.95164,197.141095 191.672552,197.092514 L191.676776,197.149544 L190.504493,197.24037 C188.709104,197.719844 187.382628,199.346255 187.378404,201.287388 C187.382628,202.189306 187.672003,203.01941 188.157814,203.707994 C189.156895,203.084889 190.32073,202.713138 191.585951,202.713138 C192.846947,202.713138 194.012894,203.084889 195.014087,203.707994 C195.499899,203.027859 195.789273,202.189306 195.793497,201.287388 Z M188.162038,246.603004 C187.676227,247.289476 187.382628,248.117467 187.382628,249.029947 C187.382628,249.925529 187.672003,250.755633 188.162038,251.442105 C189.156895,250.821111 190.32073,250.447248 191.585951,250.447248 C192.846947,250.447248 194.012894,250.821111 195.014087,251.442105 C195.499899,250.755633 195.789273,249.925529 195.789273,249.029947 C195.789273,248.117467 195.499899,247.289476 195.009863,246.603004 C194.012894,247.221885 192.846947,247.59786 191.585951,247.59786 C190.324954,247.59786 189.159007,247.221885 188.162038,246.603004 Z M188.157814,238.650487 C187.672003,239.332735 187.382628,240.169175 187.382628,241.062645 C187.382628,241.968788 187.672003,242.805228 188.157814,243.483251 C189.156895,242.870707 190.32073,242.490507 191.585951,242.490507 C192.846947,242.490507 194.012894,242.870707 195.009863,243.483251 C195.499899,242.805228 195.789273,241.968788 195.789273,241.062645 C195.789273,240.158614 195.499899,239.332735 195.014087,238.650487 C194.012894,239.263031 192.846947,239.645344 191.585951,239.645344 L191.585951,239.636895 C190.32073,239.636895 189.156895,239.263031 188.157814,238.650487 Z M188.157814,214.782375 C187.672003,215.462511 187.382628,216.298951 187.378404,217.205094 C187.382628,218.109126 187.672003,218.937117 188.157814,219.617252 C189.156895,219.002596 190.324954,218.622396 191.585951,218.622396 C192.846947,218.622396 194.012894,219.002596 195.014087,219.617252 C195.493562,218.937117 195.789273,218.100677 195.789273,217.205094 C195.789273,216.298951 195.493562,215.462511 195.009863,214.782375 C194.00867,215.397032 192.846947,215.777232 191.585951,215.777232 L191.585951,215.768783 C190.32073,215.768783 189.156895,215.397032 188.157814,214.782375 Z M191.585951,252.770693 C191.125486,252.770693 190.694593,252.861518 190.280597,253.000925 C190.694593,253.133995 191.125486,253.226933 191.585951,253.233269 C192.042191,253.226933 192.473084,253.133995 192.88708,253.000925 C192.473084,252.861518 192.042191,252.770693 191.585951,252.770693 Z M191.585951,244.818176 C191.125486,244.818176 190.694593,244.911114 190.28271,245.042071 C190.698817,245.18359 191.129711,245.274416 191.585951,245.274416 L191.585951,245.265967 C192.042191,245.265967 192.473084,245.175141 192.882855,245.042071 C192.46886,244.911114 192.042191,244.818176 191.585951,244.818176 Z M191.585951,236.861435 C191.129711,236.861435 190.698817,236.958597 190.28271,237.091667 C190.694593,237.224737 191.125486,237.317675 191.585951,237.317675 C192.042191,237.317675 192.46886,237.224737 192.882855,237.091667 C192.473084,236.958597 192.042191,236.861435 191.585951,236.861435 Z M191.585951,228.900469 C191.125486,228.900469 190.694593,229.001856 190.280597,229.132813 C190.694593,229.265883 191.125486,229.36727 191.585951,229.36727 L191.585951,229.356709 C192.042191,229.356709 192.473084,229.265883 192.882855,229.132813 C192.473084,229.001856 192.042191,228.900469 191.585951,228.900469 Z M191.585951,220.952177 C191.129711,220.952177 190.698817,221.04089 190.286934,221.176072 C190.698817,221.30703 191.129711,221.406304 191.585951,221.406304 C192.042191,221.406304 192.473084,221.30703 192.882855,221.176072 C192.473084,221.04089 192.042191,220.952177 191.585951,220.952177 Z M191.585951,205.040806 C191.129711,205.040806 190.698817,205.133744 190.28271,205.266814 C190.698817,205.397772 191.129711,205.494934 191.585951,205.494934 L191.585951,205.488598 C192.042191,205.488598 192.473084,205.397772 192.882855,205.266814 C192.473084,205.133744 192.042191,205.040806 191.585951,205.040806 Z M191.585951,212.993323 C191.129711,213.001772 190.698817,213.082037 190.286934,213.223555 C190.698817,213.358738 191.129711,213.447451 191.585951,213.447451 C192.042191,213.447451 192.46886,213.358738 192.878631,213.223555 C192.46886,213.082037 192.042191,213.001772 191.585951,212.993323 Z" id="filament" fill="url(#linearGradient-6)" transform="translate(133.654031, 229.133870) rotate(-90.000000) translate(-133.654031, -229.133870) "></path>
                <path d="M78.6986551,110.563429 L98.9738765,103.185436 C92.6034142,89.5130218 83.7468663,77.6592305 73.1604084,67.9432194 L62.0881393,87.1177618 C68.7057316,93.8747607 74.3538139,101.725891 78.6986551,110.563429 M48.3481336,75.6272727 L59.1246915,56.9575515 C44.9453436,47.591958 28.7448101,41.5066457 11.779441,39.2402313 L15.74197,61.6994904 C27.422559,64.1707905 38.5072902,68.9211783 48.3481336,75.6272727" id="glow" fill="#FFFFFF" transform="translate(55.376659, 74.901830) rotate(-90.000000) translate(-55.376659, -74.901830) "></path>
            </g>
        </g>
    </g>
</svg>
